<svg width="28" height="28" viewBox="0 0 28 28" fill="none" xmlns="http://www.w3.org/2000/svg">
<path d="M26.609 7.4638L23.984 4.88693C23.656 4.56032 23.212 4.37695 22.7491 4.37695C22.2863 4.37695 21.8423 4.56032 21.5143 4.88693L11.3752 14.8751L11.3632 14.863L7.35569 11.0054C7.0269 10.68 6.58263 10.498 6.12004 10.4992C5.65745 10.5004 5.21416 10.6848 4.8871 11.0119L2.2621 13.6369C1.93449 13.965 1.75049 14.4098 1.75049 14.8734C1.75049 15.3371 1.93449 15.7818 2.2621 16.1099L10.0955 23.9849C10.258 24.1474 10.451 24.2764 10.6633 24.3644C10.8757 24.4523 11.1033 24.4976 11.3331 24.4976C11.563 24.4976 11.7906 24.4523 12.0029 24.3644C12.2152 24.2764 12.4082 24.1474 12.5707 23.9849L26.6144 9.94334C26.7773 9.78039 26.9064 9.58689 26.9942 9.37395C27.0821 9.161 27.1271 8.9328 27.1266 8.70243C27.1261 8.47206 27.0801 8.24406 26.9913 8.03151C26.9025 7.81896 26.7725 7.62603 26.609 7.4638ZM11.3337 22.7501L3.50022 14.8751L6.12522 12.2501L6.13726 12.2621L10.1448 16.1197C10.4725 16.4444 10.9151 16.6265 11.3763 16.6265C11.8376 16.6265 12.2802 16.4444 12.6079 16.1197L22.7568 6.12505L25.3752 8.7063L11.3337 22.7501Z" fill="#343330"/>
</svg>
