<svg width="28" height="28" viewBox="0 0 28 28" fill="none" xmlns="http://www.w3.org/2000/svg">
<path d="M20.113 16.7714C19.8861 18.0387 19.2763 19.2061 18.3659 20.1164C17.4554 21.0267 16.2879 21.6362 15.0205 21.8628C14.9724 21.8705 14.9237 21.8745 14.875 21.8748C14.6555 21.8748 14.4441 21.7922 14.2826 21.6436C14.1211 21.4949 14.0214 21.291 14.0032 21.0723C13.9851 20.8535 14.0498 20.636 14.1845 20.4627C14.3192 20.2894 14.5142 20.1731 14.7306 20.1369C16.543 19.8317 18.0808 18.2939 18.3881 16.4783C18.427 16.2494 18.5552 16.0453 18.7445 15.911C18.9338 15.7766 19.1688 15.723 19.3977 15.7619C19.6265 15.8007 19.8306 15.9289 19.9649 16.1182C20.0993 16.3076 20.1529 16.5425 20.1141 16.7714H20.113ZM23.625 15.7498C23.625 18.3025 22.6109 20.7507 20.8059 22.5557C19.0009 24.3608 16.5527 25.3748 14 25.3748C11.4473 25.3748 8.99914 24.3608 7.1941 22.5557C5.38906 20.7507 4.375 18.3025 4.375 15.7498C4.375 12.6961 5.57813 9.57342 7.94719 6.46935C8.02218 6.37107 8.11714 6.28978 8.22583 6.23087C8.33452 6.17195 8.45445 6.13673 8.57774 6.12753C8.70103 6.11833 8.82486 6.13537 8.94109 6.17751C9.05731 6.21965 9.16329 6.28594 9.25203 6.37201L11.8902 8.93248L14.2964 2.32514C14.3445 2.19335 14.4235 2.07506 14.5269 1.98023C14.6303 1.8854 14.7549 1.81681 14.8903 1.78025C15.0258 1.74368 15.168 1.74022 15.3051 1.77014C15.4421 1.80006 15.5699 1.86249 15.6778 1.95217C18.0698 3.93732 23.625 9.24748 23.625 15.7498ZM21.875 15.7498C21.875 10.7087 17.9605 6.35232 15.5083 4.11998L13.0725 10.7995C13.0225 10.9367 12.939 11.0592 12.8295 11.1558C12.7201 11.2525 12.5882 11.3202 12.4458 11.3528C12.3035 11.3854 12.1553 11.3819 12.0147 11.3426C11.8741 11.3033 11.7455 11.2294 11.6408 11.1276L8.75656 8.32982C7.00984 10.8509 6.125 13.3436 6.125 15.7498C6.125 17.8384 6.95468 19.8414 8.43153 21.3183C9.90838 22.7951 11.9114 23.6248 14 23.6248C16.0886 23.6248 18.0916 22.7951 19.5685 21.3183C21.0453 19.8414 21.875 17.8384 21.875 15.7498Z" fill="#343330"/>
</svg>
