<svg width="32" height="33" viewBox="0 0 32 33" fill="none" xmlns="http://www.w3.org/2000/svg">
<path fill-rule="evenodd" clip-rule="evenodd" d="M27.3139 15.4949L27.0506 18.2963C26.6159 22.9101 26.3985 25.2182 25.0381 26.6085C23.68 28 21.6423 28 17.5645 28H14.4365C10.3599 28 8.32214 28 6.96173 26.6085C5.60131 25.217 5.38512 22.9101 4.95043 18.2963L4.68594 15.4949C4.47894 13.2961 4.37544 12.1955 4.75263 11.7413C4.84746 11.6229 4.96495 11.5245 5.09823 11.4521C5.23152 11.3796 5.37792 11.3344 5.52886 11.3192C6.07625 11.2709 6.76278 12.0529 8.137 13.617C8.84768 14.4265 9.20302 14.8302 9.59861 14.8934C9.81956 14.9279 10.0457 14.8917 10.2449 14.7899C10.6117 14.6059 10.8544 14.1057 11.3431 13.1063L13.9156 7.83475C14.8379 5.9453 15.299 5 16.0005 5C16.702 5 17.1631 5.9453 18.0854 7.83475L20.6579 13.1063C21.1455 14.1068 21.3893 14.6059 21.7561 14.7899C21.9585 14.8923 22.1816 14.9279 22.4024 14.8934C22.798 14.8302 23.1533 14.4265 23.864 13.617C25.2382 12.0529 25.9247 11.2709 26.4721 11.3192C26.6231 11.3344 26.7695 11.3796 26.9028 11.4521C27.036 11.5245 27.1535 11.6229 27.2484 11.7413C27.6244 12.1955 27.5209 13.2961 27.3139 15.4949ZM17.0953 17.305L16.9826 17.1026C16.5456 16.3183 16.3271 15.9262 16.0005 15.9262C15.6739 15.9262 15.4554 16.3183 15.0184 17.1026L14.9057 17.305C14.7815 17.5281 14.7194 17.6385 14.6228 17.7121C14.5251 17.7857 14.4043 17.8133 14.1628 17.8685L13.9443 17.9179C13.0957 18.11 12.6713 18.2054 12.5701 18.5309C12.4689 18.8552 12.7587 19.1933 13.3372 19.8695L13.4867 20.0443C13.6511 20.2375 13.7339 20.3329 13.7707 20.4514C13.8075 20.571 13.7949 20.6986 13.7707 20.9551L13.7477 21.1897C13.6603 22.0913 13.6166 22.5433 13.88 22.7434C14.1444 22.9446 14.5423 22.7617 15.337 22.3949L15.5417 22.3006C15.7682 22.1971 15.8809 22.1453 16.0005 22.1453C16.1201 22.1453 16.2328 22.1971 16.4593 22.3006L16.664 22.3949C17.4587 22.7617 17.8565 22.9446 18.121 22.7434C18.3855 22.5433 18.3407 22.0913 18.2533 21.1885L18.2303 20.9551C18.2061 20.6986 18.1935 20.571 18.2303 20.4525C18.2671 20.3329 18.3499 20.2375 18.5143 20.0443L18.6638 19.8695C19.2423 19.1933 19.5321 18.8552 19.4309 18.5297C19.3297 18.2055 18.9053 18.11 18.0566 17.9179L17.8381 17.8685C17.5967 17.8133 17.4759 17.7857 17.3782 17.7121C17.2816 17.6396 17.2195 17.5281 17.0953 17.305Z" fill="#1F292E"/>
</svg>
