<svg width="15" height="15" viewBox="0 0 15 15" fill="none" xmlns="http://www.w3.org/2000/svg">
<path fill-rule="evenodd" clip-rule="evenodd" d="M14.8786 6.8445L14.7069 8.6715C14.4234 11.6805 14.2816 13.1858 13.3944 14.0925C12.5087 15 11.1797 15 8.5203 15H6.48035C3.82167 15 2.4927 15 1.60547 14.0925C0.718247 13.185 0.577251 11.6805 0.293758 8.6715L0.121263 6.8445C-0.0137339 5.4105 -0.0812321 4.69275 0.164762 4.3965C0.226601 4.31926 0.303226 4.25514 0.390151 4.20787C0.477076 4.16061 0.572554 4.13116 0.670999 4.12125C1.02799 4.08975 1.47573 4.59975 2.37195 5.61975C2.83544 6.14775 3.06719 6.411 3.32518 6.45225C3.46928 6.47471 3.61679 6.45109 3.74667 6.38475C3.98591 6.26475 4.14416 5.9385 4.4629 5.28675L6.14061 1.84875C6.74209 0.6165 7.04283 0 7.50032 0C7.95781 0 8.25855 0.6165 8.86004 1.84875L10.5377 5.28675C10.8557 5.93925 11.0147 6.26475 11.254 6.38475C11.386 6.4515 11.5315 6.47475 11.6755 6.45225C11.9335 6.411 12.1652 6.14775 12.6287 5.61975C13.5249 4.59975 13.9727 4.08975 14.3296 4.12125C14.4281 4.13116 14.5236 4.16061 14.6105 4.20787C14.6974 4.25514 14.774 4.31926 14.8359 4.3965C15.0811 4.69275 15.0136 5.4105 14.8786 6.8445ZM8.2143 8.025L8.14081 7.893C7.85581 7.3815 7.71332 7.12575 7.50032 7.12575C7.28733 7.12575 7.14483 7.3815 6.85984 7.893L6.78634 8.025C6.70534 8.1705 6.66484 8.2425 6.60185 8.2905C6.5381 8.3385 6.45935 8.3565 6.30185 8.3925L6.15936 8.42475C5.60587 8.55 5.32913 8.61225 5.26313 8.8245C5.19713 9.036 5.38613 9.2565 5.76337 9.6975L5.86087 9.8115C5.96811 9.9375 6.02211 9.99975 6.04611 10.077C6.07011 10.155 6.06186 10.2382 6.04611 10.4055L6.03111 10.5585C5.97411 11.1465 5.94561 11.4413 6.11736 11.5718C6.28985 11.703 6.54935 11.5837 7.06758 11.3445L7.20108 11.283C7.34883 11.2155 7.42233 11.1818 7.50032 11.1818C7.57832 11.1818 7.65182 11.2155 7.79957 11.283L7.93306 11.3445C8.4513 11.5837 8.71079 11.703 8.88329 11.5718C9.05578 11.4413 9.02653 11.1465 8.96953 10.5577L8.95454 10.4055C8.93879 10.2382 8.93054 10.155 8.95454 10.0778C8.97854 9.99975 9.03253 9.9375 9.13978 9.8115L9.23728 9.6975C9.61452 9.2565 9.80351 9.036 9.73752 8.82375C9.67152 8.61225 9.39477 8.55 8.84129 8.42475L8.69879 8.3925C8.5413 8.3565 8.46255 8.3385 8.3988 8.2905C8.3358 8.24325 8.2953 8.1705 8.2143 8.025Z" fill="#F8D374"/>
</svg>
