<svg width="32" height="33" viewBox="0 0 32 33" fill="none" xmlns="http://www.w3.org/2000/svg">
<g id="Icon">
<path id="Vector" d="M15.9998 8.32779C13.1504 8.32779 10.8385 10.6396 10.8385 13.4891C10.8385 16.3385 13.1504 18.6504 15.9998 18.6504C18.8493 18.6504 21.1611 16.3385 21.1611 13.4891C21.1611 10.6396 18.8493 8.32779 15.9998 8.32779ZM15.9998 16.0697C14.5751 16.0697 13.4192 14.9138 13.4192 13.4891C13.4192 12.0644 14.5751 10.9084 15.9998 10.9084C17.4246 10.9084 18.5805 12.0644 18.5805 13.4891C18.5805 14.9138 17.4246 16.0697 15.9998 16.0697ZM15.9998 3.1665C8.63424 3.1665 2.6665 9.13424 2.6665 16.4998C2.6665 23.8654 8.63424 29.8332 15.9998 29.8332C23.3654 29.8332 29.3332 23.8654 29.3332 16.4998C29.3332 9.13424 23.3654 3.1665 15.9998 3.1665ZM15.9998 27.2525C13.3278 27.2525 10.8869 26.2687 9.00521 24.6504C9.80629 23.4138 11.1773 22.5751 12.7471 22.5267C13.8654 22.8708 14.9299 23.0428 15.9998 23.0428C17.0697 23.0428 18.1342 22.8762 19.2525 22.5267C20.8224 22.5805 22.1934 23.4138 22.9945 24.6504C21.1127 26.2687 18.6719 27.2525 15.9998 27.2525ZM24.7471 22.731C23.4353 21.0428 21.4084 19.9407 19.0966 19.9407C18.5482 19.9407 17.6988 20.4568 15.9998 20.4568C14.3063 20.4568 13.4514 19.9407 12.9031 19.9407C10.5966 19.9407 8.56973 21.0428 7.25252 22.731C5.99446 20.973 5.24715 18.8224 5.24715 16.4998C5.24715 10.5697 10.0697 5.74715 15.9998 5.74715C21.9299 5.74715 26.7525 10.5697 26.7525 16.4998C26.7525 18.8224 26.0052 20.973 24.7471 22.731Z" fill="#1F292E"/>
</g>
</svg>
